<svg xmlns="http://www.w3.org/2000/svg">
        <symbol id="telegram" viewBox="0 0 24 24">
            <g>
                <path d="M7.45527 12.6509L7.14097 17.3042C7.59064 17.3042 7.78539 17.1009 8.01893 16.8567L10.1271 14.7359L14.4956 18.1034C15.2967 18.5734 15.8612 18.3259 16.0773 17.3276L18.9447 3.18422L18.9455 3.18339C19.1996 1.93672 18.5172 1.44922 17.7366 1.75505L0.882057 8.54755C-0.268234 9.01755 -0.250818 9.69255 0.686516 9.99839L4.99556 11.4092L15.0046 4.81672C15.4756 4.48839 15.9039 4.67005 15.5516 4.99839L7.45527 12.6509Z"></path>
            </g>
        </symbol>
        <symbol id="vk" viewBox="0 0 24 24">
            <g>
                <path d="M16.5958 10.8566C16.2725 10.4483 16.365 10.2666 16.5958 9.90163C16.6 9.89746 19.2692 6.20913 19.5442 4.95829L19.5458 4.95746C19.6825 4.50163 19.5458 4.16663 18.885 4.16663H16.6983C16.1417 4.16663 15.885 4.45413 15.7475 4.77579C15.7475 4.77579 14.6342 7.44079 13.0592 9.16829C12.5508 9.66746 12.3158 9.82746 12.0383 9.82746C11.9017 9.82746 11.6892 9.66746 11.6892 9.21163V4.95746C11.6892 4.41079 11.5333 4.16663 11.0725 4.16663H7.63417C7.285 4.16663 7.0775 4.42163 7.0775 4.65913C7.0775 5.17746 7.865 5.29663 7.94667 6.75496V9.91913C7.94667 10.6125 7.82083 10.74 7.54167 10.74C6.79833 10.74 4.99417 8.06413 3.925 5.00163C3.70917 4.40746 3.49833 4.16746 2.9375 4.16746H0.75C0.125833 4.16746 0 4.45496 0 4.77663C0 5.34496 0.743333 8.17079 3.45667 11.9041C5.265 14.4525 7.81167 15.8333 10.1283 15.8333C11.5208 15.8333 11.6908 15.5266 11.6908 14.9991C11.6908 12.5641 11.565 12.3341 12.2625 12.3341C12.5858 12.3341 13.1425 12.4941 14.4425 13.7233C15.9283 15.1808 16.1725 15.8333 17.0042 15.8333H19.1908C19.8142 15.8333 20.13 15.5266 19.9483 14.9216C19.5325 13.6491 16.7225 11.0316 16.5958 10.8566Z"></path>
            </g>
        </symbol>
        <symbol id="whatsapp" viewBox="0 0 24 24">
            <g>
                <path d="M7.50187 0H7.49813C3.36281 0 0 3.588 0 8C0 9.75 0.52875 11.372 1.42781 12.689L0.493125 15.661L3.37594 14.678C4.56187 15.516 5.97656 16 7.50187 16C11.6372 16 15 12.411 15 8C15 3.589 11.6372 0 7.50187 0ZM11.8659 11.297C11.685 11.842 10.9669 12.294 10.3941 12.426C10.0022 12.515 9.49031 12.586 7.76719 11.824C5.56312 10.85 4.14375 8.461 4.03312 8.306C3.92719 8.151 3.1425 7.041 3.1425 5.893C3.1425 4.745 3.68906 4.186 3.90938 3.946C4.09031 3.749 4.38937 3.659 4.67625 3.659C4.76906 3.659 4.8525 3.664 4.9275 3.668C5.14781 3.678 5.25844 3.692 5.40375 4.063C5.58469 4.528 6.02531 5.676 6.07781 5.794C6.13125 5.912 6.18469 6.072 6.10969 6.227C6.03938 6.387 5.9775 6.458 5.86687 6.594C5.75625 6.73 5.65125 6.834 5.54062 6.98C5.43937 7.107 5.325 7.243 5.4525 7.478C5.58 7.708 6.02063 8.475 6.66937 9.091C7.50656 9.886 8.18531 10.14 8.42812 10.248C8.60906 10.328 8.82469 10.309 8.95687 10.159C9.12469 9.966 9.33187 9.646 9.54281 9.331C9.69281 9.105 9.88219 9.077 10.0809 9.157C10.2834 9.232 11.355 9.797 11.5753 9.914C11.7956 10.032 11.9409 10.088 11.9944 10.187C12.0469 10.286 12.0469 10.751 11.8659 11.297Z"></path>
            </g>
        </symbol>
        <symbol id="instagram" viewBox="0 0 24 24">
            <g>
                <path d="M11 0H4C1.76108 0 0 1.61182 0 4V12C0 14.3881 1.76108 16 4 16H11C13.2388 16 15 14.3881 15 12V4C15 1.61182 13.2389 0 11 0ZM7 12C4.73842 12 3 10.4123 3 8C3 5.58765 4.73842 4 7 4C9.26158 4 12 5.58765 12 8C12 10.4123 9.26158 12 7 12ZM12 5C11.3317 5 10 3.71289 10 3C10 2.28711 11.3317 2 12 2C12.6683 2 13 2.28711 13 3C13 3.71289 12.6683 5 12 5Z"></path>
				<path d="M7 5C5.34587 5 4 7.07006 4 9C4 10.9298 5.34587 12 7 12C8.65424 12 10 10.9298 10 9C10 7.07006 8.65424 5 7 5Z"></path>
				<path d="M11 3C10.7545 3 11 3.75446 11 4C11 4.24554 10.7545 4 11 4C11.2457 4 12 4.24569 12 4C12 3.75431 11.2457 3 11 3Z"></path>
            </g>
        </symbol>
		<symbol id="search" viewBox="0 0 24 24">
            <g>
                <path d="M22 20L15 14C16.1972 12.5085 17 11.0642 17 9C17 4.21582 13.7435 0 9 0C4.25651 0 0 4.21582 0 9C0 13.7842 4.25651 17 9 17C11.0466 17 12.5212 16.2075 14 15L20 22C20.1766 22.1781 20.7681 22 21 22C21.2319 22 21.8234 22.1781 22 22C22.3541 21.6429 22.3541 20.3571 22 20ZM9 16C5.25446 16 2 12.7777 2 9C2 5.22233 5.25446 2 9 2C12.7455 2 16 5.22233 16 9C16 12.7777 12.7455 16 9 16Z"></path>
            </g>
        </symbol>
		<symbol id="hearth" viewBox="0 0 24 24">
            <g>
                <path d="M12 21C11.6726 21 11.246 21.2096 11 21C10.0709 20.2096 8.79034 18.6552 8 18C5.68284 16.079 3.39223 14.6342 2 13C0.443703 11.1731 0 9.89232 0 8C0 6.16145 0.823433 4.24157 2 3C3.19061 1.74375 4.22366 1 6 1C7.32765 1 8.92977 1.19476 10 2C10.5401 2.40646 11.5687 3.41976 12 4C12.4315 3.41976 12.4597 2.40646 13 2C14.0702 1.19476 15.6723 1 17 1C18.7762 1 19.8094 1.74375 21 3C22.1766 4.24157 23 6.16145 23 8C23 9.89232 22.5563 11.1732 21 13C19.6078 14.6344 17.3168 16.0792 15 18C14.2083 18.6562 12.9313 20.2077 12 21C12.3273 21 11.7542 21.2093 12 21ZM6 2C4.60444 2 3.93266 3.01603 3 4C2.05348 4.99882 1 6.49161 1 8C1 9.59153 1.63673 10.3998 3 12C4.31765 13.5468 6.73074 15.1186 9 17C9.79333 17.6577 10.064 19.2038 11 20C11.9416 19.2023 13.2051 17.6588 14 17C16.2691 15.1186 18.6824 13.5468 20 12C21.3631 10.3998 22 9.59153 22 8C22 6.49161 20.9465 4.99882 20 4C19.0675 3.01603 18.3954 2 17 2C15.9777 2 14.8288 2.37657 14 3C13.2614 3.55583 12.3016 4.50836 12 5C11.8449 5.25282 12.3023 5 12 5C11.6977 5 11.1551 5.25282 11 5C10.6985 4.50836 9.73875 3.55583 9 3C8.17123 2.37657 7.02215 2 6 2Z"></path>
            </g>
        </symbol>
		<symbol id="cart" viewBox="0 0 24 24">
            <g>
                <path d="M24 8.99997C23.6874 8.6106 22.5052 7.99997 22 7.99997H18L15 1.99997C14.8468 1.6515 14.351 1.8477 14 1.99997C13.649 2.15215 13.8467 2.65145 14 2.99997L16 7.99997H8.00003L10 2.99997C10.1533 2.65145 10.351 2.15219 10 1.99997C9.64906 1.8477 9.15329 1.65141 9.00003 1.99997L6.00003 7.99997H2.00003C1.49487 7.99997 0.312614 8.61055 2.55853e-05 8.99997C-0.30683 9.38227 -0.10941 9.52521 2.55853e-05 9.99997L3.00003 21C3.17003 21.7372 3.22954 22 4.00003 22H20C20.7705 22 20.83 21.7372 21 21L24 9.99997C24.1095 9.52521 24.3069 9.38227 24 8.99997ZM20 21H4.00003C3.88227 21 4.02439 20.1056 4.00003 20L1.00003 9.99997C0.980931 9.91711 0.969696 10.0377 1.00003 9.99997C1.02814 9.9649 1.8898 8.99997 2.00003 8.99997H6.00003L5.00003 9.99997C4.84676 10.3485 5.64902 10.8477 6.00003 11C6.09037 11.0392 5.90733 11 6.00003 11C6.26735 11 6.8862 10.2587 7.00003 9.99997V8.99997H17V9.99997C17.1139 10.2588 17.7327 11 18 11C18.0927 11 17.9097 11.0392 18 11C18.351 10.8478 19.1533 10.3485 19 9.99997L18 8.99997H22C22.1102 8.99997 22.9719 9.9649 23 9.99997C23.0303 10.0377 23.0191 9.9172 23 9.99997L20 20C19.9756 20.1056 20.1178 21 20 21Z"></path>
				<path d="M8 13C7.75405 13 7 13.5858 7 14V19C7 19.4142 7.75405 20 8 20C8.24595 20 8 19.4142 8 19V14C8 13.5858 8.24598 13 8 13Z"></path>
				<path d="M12 13C11.7541 13 11 13.5858 11 14V19C11 19.4142 11.7541 20 12 20C12.2459 20 12 19.4142 12 19V14C12 13.5858 12.2459 13 12 13Z"></path>
				<path d="M17 13C16.7541 13 16 13.5858 16 14V19C16 19.4142 16.7541 20 17 20C17.2459 20 17 19.4142 17 19V14C17 13.5858 17.2459 13 17 13Z"></path>
            </g>
        </symbol>
		<symbol id="rubl" viewBox="0 0 36 36">
            <g>
                 <path d="M2.52327 31.1131H8.40974V36.1592C8.40974 36.4047 8.48829 36.6057 8.64633 36.7628C8.80394 36.9209 9.00543 37 9.25088 37H13.6391C13.8669 37 14.064 36.9209 14.2304 36.7628C14.3969 36.6057 14.4799 36.4047 14.4799 36.1592V31.1131H27.7504C27.9953 31.1131 28.1969 31.0351 28.3549 30.8769C28.513 30.719 28.5915 30.5178 28.5915 30.2723V26.9085C28.5915 26.6645 28.513 26.462 28.3549 26.3049C28.1973 26.1468 27.9953 26.0678 27.7504 26.0678H14.4794V22.9668H23.4141C26.9177 22.9668 29.7772 21.8992 31.994 19.761C34.2099 17.625 35.3184 14.8659 35.3184 11.4834C35.3184 8.10316 34.2099 5.34394 31.994 3.2058C29.7776 1.06976 26.9176 0 23.4141 0H9.25044C9.00493 0 8.80387 0.0789862 8.6459 0.236161C8.48829 0.394206 8.4093 0.596567 8.4093 0.840706V17.3702H2.52327C2.27783 17.3702 2.0767 17.4533 1.91872 17.6197C1.76119 17.7861 1.68213 17.9832 1.68213 18.2109V22.1259C1.68213 22.3714 1.76068 22.5726 1.91872 22.7305C2.07677 22.8887 2.27739 22.9667 2.52327 22.9667H8.40974V26.0677H2.52327C2.27783 26.0677 2.0767 26.1468 1.91872 26.3049C1.76119 26.462 1.68213 26.664 1.68213 26.9085V30.2722C1.68213 30.5178 1.76068 30.7189 1.91872 30.8769C2.0767 31.0351 2.27775 31.1131 2.52327 31.1131ZM14.4794 5.59787H22.8885C24.7453 5.59787 26.2429 6.14076 27.382 7.22691C28.5205 8.31314 29.09 9.73264 29.09 11.4838C29.09 13.2359 28.5205 14.6558 27.382 15.7407C26.2429 16.8278 24.7452 17.3707 22.8885 17.3707H14.4794V5.59787Z"></path>
            </g>
        </symbol>
		<symbol id="arrow" viewBox="0 0 24 24">
            <g>
                 <path d="M1.00005 9L10 2.5183e-06C10.2032 -0.204143 10.7109 2.5183e-06 11 2.5183e-06C11.2892 2.5183e-06 11.7969 -0.204143 12 2.5183e-06L13 1C13.4209 1.42312 13.4209 2.57753 13 3L5.00005 10L13 17C13.2032 17.2041 13 17.7098 13 18C13 18.2905 13.2032 18.7957 13 19L12 20C11.7968 20.2041 11.2892 20 11 20C10.7109 20 10.2032 20.2041 10 20L1.00005 11C0.796449 10.7952 0.999406 10.2907 1.00005 10C0.999406 9.70821 0.796449 9.20463 1.00005 9Z"></path>
            </g>
        </symbol>
		<symbol id="next-arrow" viewBox="0 0 24 24">
            <g>
                 <path d="M16 9L6.99995 2.5183e-06C6.79683 -0.204143 6.28907 2.5183e-06 5.99995 2.5183e-06C5.71084 2.5183e-06 5.20307 -0.204143 4.99995 2.5183e-06L3.99995 1C3.57912 1.42312 3.57912 2.57753 3.99995 3L12 10L3.99995 17C3.79683 17.2041 3.99995 17.7098 3.99995 18C3.99995 18.2905 3.79683 18.7957 3.99995 19L4.99995 20C5.20323 20.2041 5.71084 20 5.99995 20C6.28907 20 6.79683 20.2041 6.99995 20L16 11C16.2036 10.7952 16.0006 10.2907 16 10C16.0006 9.70821 16.2036 9.20463 16 9Z"></path>
            </g>
        </symbol>
    </svg>